<svg width="433" height="363" viewBox="0 0 433 363" fill="none" xmlns="http://www.w3.org/2000/svg">
<rect x="431.727" y="7.69305" width="354.664" height="400.843" transform="rotate(90.4681 431.727 7.69305)" fill="#CCA8DF"/>
<rect x="431.727" y="7.69305" width="340.211" height="400.843" transform="rotate(90.4681 431.727 7.69305)" fill="#C59EDA"/>
<rect x="431.727" y="7.69305" width="323.534" height="400.843" transform="rotate(90.4681 431.727 7.69305)" fill="#CCA8DF"/>
<rect x="431.727" y="7.69305" width="306.857" height="400.843" transform="rotate(90.4681 431.727 7.69305)" fill="#C59EDA"/>
<rect x="431.727" y="7.69305" width="289.068" height="400.843" transform="rotate(90.4681 431.727 7.69305)" fill="#CCA8DF"/>
<rect x="431.727" y="7.69305" width="273.503" height="400.843" transform="rotate(90.4681 431.727 7.69305)" fill="#C59EDA"/>
<rect width="429.586" height="349.145" transform="matrix(0.999974 -0.00722764 0.00723126 0.999974 0 6.52289)" fill="#CCA8DF"/>
<rect width="412.079" height="349.145" transform="matrix(0.999974 -0.00722764 0.00723126 0.999974 0 6.52289)" fill="#C59EDA"/>
<rect width="391.879" height="349.145" transform="matrix(0.999974 -0.00722764 0.00723126 0.999974 0 6.52289)" fill="#CCA8DF"/>
<rect width="371.679" height="349.145" transform="matrix(0.999974 -0.00722764 0.00723126 0.999974 0 6.52289)" fill="#C59EDA"/>
<rect width="350.133" height="349.145" transform="matrix(0.999974 -0.00722764 0.00723126 0.999974 0 6.52289)" fill="#CCA8DF"/>
<rect width="331.279" height="349.145" transform="matrix(0.999974 -0.00722764 0.00723126 0.999974 0 6.52289)" fill="#C59EDA"/>
<rect width="401.488" height="349.244" transform="matrix(-1 0 -3.62871e-06 -1 405.995 349.244)" fill="#D3B4E4"/>
</svg>
